<svg width="14" height="14" viewBox="0 0 28 28" fill="none" xmlns="http://www.w3.org/2000/svg">
<g clip-path="url(#clip0)">
<path d="M22.4276 2.856H21.8676V1.428C21.8676 0.56 21.2796 0 20.4396 0C19.5996 0 19.0116 0.56 19.0116 1.428V2.856H9.71557V1.428C9.71557 0.56 9.15557 0 8.28757 0C7.41957 0 6.85957 0.56 6.85957 1.428V2.856H5.57157C2.85557 2.856 0.55957 5.152 0.55957 7.868V23.016C0.55957 25.732 2.85557 28.028 5.57157 28.028H22.4276C25.1436 28.028 27.4396 25.732 27.4396 23.016V7.868C27.4396 5.152 25.1436 2.856 22.4276 2.856ZM5.57157 5.712H22.4276C23.5756 5.712 24.5836 6.72 24.5836 7.868V9.856H3.41557V7.868C3.41557 6.72 4.42357 5.712 5.57157 5.712ZM22.4276 25.144H5.57157C4.42357 25.144 3.41557 24.136 3.41557 22.988V12.712H24.5556V22.988C24.5836 24.136 23.5756 25.144 22.4276 25.144Z" fill="#EA4989"></path>
</g>
<defs>
<clipPath id="clip0">
<rect width="28" height="28" fill="white"></rect>
</clipPath>
</defs>
</svg>