<svg width="14" height="14" viewBox="0 0 33 33" fill="none" xmlns="http://www.w3.org/2000/svg">
	<path d="M7.12885 22H6.87549C6.11615 22 5.50049 22.615 5.50049 23.375C5.50049 24.135 6.11615 24.75 6.87549 24.75H7.12894C7.69836 26.3471 9.21032 27.5 11.0005 27.5C12.7907 27.5 14.3027 26.3471 14.8721 24.75H18.1289C18.6984 26.3471 20.2103 27.5 22.0005 27.5C23.7985 27.5 25.3154 26.3366 25.8788 24.7285C27.5195 24.6187 28.8881 23.4711 29.2494 21.8443L30.9608 14.1408C31.2065 13.037 30.9413 11.897 30.233 11.0148C29.5247 10.1312 28.47 9.62501 27.338 9.62501H25.5407C25.4027 9.11082 25.1547 8.62591 24.8035 8.2057C24.0966 7.35976 23.0586 6.87502 21.9562 6.87502H8.25049C7.49115 6.87502 6.87549 7.49001 6.87549 8.25002C6.87549 9.01002 7.49115 9.62501 8.25049 9.62501H21.9562C22.3469 9.62501 22.5859 9.8412 22.694 9.97011C22.8014 10.099 22.9713 10.3716 22.9028 10.7543L21.3436 19.3164C19.8457 19.5586 18.6267 20.6036 18.1289 22H14.8721C14.3027 20.403 12.7907 19.25 11.0005 19.25C9.21032 19.25 7.69827 20.403 7.12885 22ZM28.0879 12.7349C28.196 12.8692 28.3632 13.1525 28.2766 13.5446L26.5652 21.2481C26.4852 21.6074 26.2128 21.8686 25.8719 21.9582C25.5383 21.0569 24.8921 20.2959 24.0492 19.8082L25.403 12.375H27.338C27.7395 12.375 27.9799 12.6006 28.0879 12.7349ZM22.0005 22C22.0878 22 22.1757 22.0067 22.2348 22.0161C22.8954 22.145 23.3755 22.7157 23.3755 23.375C23.3755 24.1337 22.7585 24.75 22.0005 24.75C21.2425 24.75 20.6255 24.1337 20.6255 23.375C20.6255 22.6163 21.2425 22 22.0005 22ZM11.0005 22C11.7585 22 12.3755 22.6163 12.3755 23.375C12.3755 24.1337 11.7585 24.75 11.0005 24.75C10.2425 24.75 9.62549 24.1337 9.62549 23.375C9.62549 22.6163 10.2425 22 11.0005 22Z" fill="white"></path>
	<path d="M5.5 15.125H11C11.7593 15.125 12.375 14.51 12.375 13.75C12.375 12.99 11.7593 12.375 11 12.375H5.5C4.74066 12.375 4.125 12.99 4.125 13.75C4.125 14.51 4.74066 15.125 5.5 15.125Z" fill="white"></path>
	<path d="M2.75049 19.25H6.87549C7.63483 19.25 8.25049 18.635 8.25049 17.875C8.25049 17.115 7.63483 16.5 6.87549 16.5H2.75049C1.99115 16.5 1.37549 17.115 1.37549 17.875C1.37549 18.635 1.99115 19.25 2.75049 19.25Z" fill="white"></path>
	<path d="M4.12451 9.62501C4.8839 9.62501 5.49951 9.0094 5.49951 8.25001C5.49951 7.49062 4.8839 6.87502 4.12451 6.87502C3.36512 6.87502 2.74951 7.49062 2.74951 8.25001C2.74951 9.0094 3.36512 9.62501 4.12451 9.62501Z" fill="white"></path>
	<path d="M2.75049 24.75C3.50988 24.75 4.12549 24.1344 4.12549 23.375C4.12549 22.6156 3.50988 22 2.75049 22C1.9911 22 1.37549 22.6156 1.37549 23.375C1.37549 24.1344 1.9911 24.75 2.75049 24.75Z" fill="white"></path>
</svg>
