<svg width="20" height="36" viewBox="0 0 20 36" fill="none" xmlns="http://www.w3.org/2000/svg">
	<path d="M19.08 24.36C19.08 25.64 18.76 26.8667 18.12 28.04C17.48 29.1867 16.5333 30.1467 15.28 30.92C14.0533 31.6933 12.5733 32.1333 10.84 32.24V35.48H8.68V32.24C6.25333 32.0267 4.28 31.2533 2.76 29.92C1.24 28.56 0.466667 26.84 0.44 24.76H4.32C4.42667 25.88 4.84 26.8533 5.56 27.68C6.30667 28.5067 7.34667 29.0267 8.68 29.24V19.24C6.89333 18.7867 5.45333 18.32 4.36 17.84C3.26667 17.36 2.33333 16.6133 1.56 15.6C0.786667 14.5867 0.4 13.2267 0.4 11.52C0.4 9.36 1.14667 7.57333 2.64 6.16C4.16 4.74666 6.17333 3.96 8.68 3.8V0.479998H10.84V3.8C13.1067 3.98667 14.9333 4.72 16.32 6C17.7067 7.25333 18.5067 8.89333 18.72 10.92H14.84C14.7067 9.98667 14.2933 9.14667 13.6 8.4C12.9067 7.62667 11.9867 7.12 10.84 6.88V16.64C12.6 17.0933 14.0267 17.56 15.12 18.04C16.24 18.4933 17.1733 19.2267 17.92 20.24C18.6933 21.2533 19.08 22.6267 19.08 24.36ZM4.12 11.32C4.12 12.6267 4.50667 13.6267 5.28 14.32C6.05333 15.0133 7.18667 15.5867 8.68 16.04V6.8C7.29333 6.93333 6.18667 7.38667 5.36 8.16C4.53333 8.90667 4.12 9.96 4.12 11.32ZM10.84 29.28C12.28 29.12 13.4 28.6 14.2 27.72C15.0267 26.84 15.44 25.7867 15.44 24.56C15.44 23.2533 15.04 22.2533 14.24 21.56C13.44 20.84 12.3067 20.2667 10.84 19.84V29.28Z" fill="#EA4989"/>
</svg>