<svg width="24" height="24" viewBox="0 0 24 24" fill="none" xmlns="http://www.w3.org/2000/svg">
																		<g clip-path="url(#clip8)">
																		<path d="M22.2363 3.06982C22.0806 2.91507 21.8978 2.83724 21.6855 2.83724C21.58 2.83724 21.3576 2.92382 21.0205 3.09469C20.682 3.26601 20.3218 3.45668 19.9442 3.66945C19.5651 3.88084 19.1166 4.07243 18.5985 4.24375C18.0813 4.41461 17.6028 4.5012 17.162 4.5012C16.7544 4.5012 16.3961 4.42382 16.0862 4.26862C15.0596 3.78781 14.1662 3.42904 13.4086 3.19232C12.6505 2.95606 11.8353 2.83724 10.9626 2.83724C9.45569 2.83724 7.73923 3.32726 5.81506 4.30546C5.41807 4.5035 5.13346 4.65686 4.94924 4.76923L4.7664 3.42858C5.17951 3.06982 5.44617 2.5471 5.44617 1.95714C5.44617 0.876234 4.57021 0.000274694 3.48931 0.000274681C2.4084 0.000274669 1.53198 0.876234 1.53198 1.95714C1.53198 2.66223 1.90871 3.27522 2.46781 3.61971L5.11135 23.0041C5.1901 23.5812 5.68381 23.9998 6.25074 23.9998C6.30232 23.9998 6.35482 23.9957 6.40779 23.9901C7.03782 23.9036 7.47902 23.3237 7.3929 22.6937L6.33042 14.9031C8.25826 13.9465 9.9259 13.4644 11.3287 13.4644C11.9242 13.4644 12.505 13.5523 13.071 13.7329C13.6374 13.9129 14.109 14.1073 14.4835 14.3187C14.8574 14.531 15.3 14.7272 15.8098 14.9054C16.3197 15.085 16.823 15.1748 17.32 15.1748C18.5754 15.1748 20.0782 14.7018 21.8315 13.7563C22.0516 13.6421 22.2124 13.5297 22.3146 13.4201C22.4168 13.3101 22.4675 13.153 22.4675 12.9499L22.4675 3.62017C22.4675 3.40878 22.3906 3.22502 22.2363 3.06982Z" fill="#67BE65"></path>
																		</g>
																		<defs>
																		<clipPath id="clip8">
																		<rect width="24" height="24" fill="white"></rect>
																		</clipPath>
																		</defs>
																	</svg>