<svg width="24" height="24" viewBox="0 0 24 24" fill="none" xmlns="http://www.w3.org/2000/svg">
<path d="M22.9993 17.4712V20.7831C23.0006 21.0906 22.9375 21.3949 22.814 21.6766C22.6906 21.9583 22.5096 22.2112 22.2826 22.419C22.0556 22.6269 21.7876 22.7851 21.4958 22.8836C21.2039 22.9821 20.8947 23.0187 20.5879 22.991C17.1841 22.6219 13.9145 21.4611 11.0418 19.6019C8.36914 17.9069 6.10319 15.6455 4.40487 12.9781C2.53545 10.0981 1.37207 6.81909 1.00898 3.40674C0.981336 3.10146 1.01769 2.79378 1.11572 2.50329C1.21376 2.2128 1.37132 1.94586 1.57839 1.71947C1.78546 1.49308 2.03749 1.31221 2.31843 1.18836C2.59938 1.06451 2.90309 1.0004 3.21023 1.00011H6.52869C7.06551 0.994834 7.58594 1.18456 7.99297 1.53391C8.4 1.88326 8.66586 2.36841 8.74099 2.89892C8.88106 3.9588 9.14081 4.99946 9.5153 6.00106C9.66413 6.39619 9.69634 6.82562 9.60812 7.23847C9.51989 7.65131 9.31494 8.03026 9.01753 8.33042L7.61272 9.73245C9.18739 12.4963 11.4803 14.7847 14.2496 16.3562L15.6545 14.9542C15.9552 14.6574 16.3349 14.4528 16.7486 14.3648C17.1622 14.2767 17.5925 14.3089 17.9884 14.4574C18.992 14.8312 20.0348 15.0904 21.0967 15.2302C21.6341 15.3058 22.1248 15.576 22.4756 15.9892C22.8264 16.4024 23.0128 16.9298 22.9993 17.4712Z" stroke="var(--primary)" stroke-width="2" stroke-linecap="round" stroke-linejoin="round"></path>
</svg>