<svg width="16" height="16" viewBox="0 0 32 32" fill="none" xmlns="http://www.w3.org/2000/svg">
	<path d="M16.0007 1.33334C13.0999 1.33334 10.2642 2.19353 7.85229 3.80512C5.44037 5.41672 3.56051 7.70734 2.45042 10.3873C1.34034 13.0673 1.04989 16.0163 1.61581 18.8613C2.18172 21.7064 3.57859 24.3198 5.62976 26.3709C7.68093 28.4221 10.2943 29.819 13.1393 30.3849C15.9844 30.9508 18.9334 30.6603 21.6133 29.5503C24.2933 28.4402 26.584 26.5603 28.1955 24.1484C29.8071 21.7365 30.6673 18.9008 30.6673 16C30.6627 12.1116 29.116 8.38372 26.3665 5.63418C23.617 2.88464 19.8891 1.33793 16.0007 1.33334ZM16.0007 28C13.6273 28 11.3072 27.2962 9.33381 25.9777C7.36042 24.6591 5.82235 22.7849 4.9141 20.5922C4.00585 18.3995 3.76821 15.9867 4.23123 13.6589C4.69426 11.3312 5.83715 9.19296 7.51538 7.51473C9.19361 5.8365 11.3318 4.69361 13.6596 4.23059C15.9873 3.76757 18.4001 4.00521 20.5929 4.91346C22.7856 5.82171 24.6597 7.35978 25.9783 9.33317C27.2969 11.3066 28.0007 13.6266 28.0007 16C27.9971 19.1815 26.7317 22.2317 24.482 24.4814C22.2324 26.7311 19.1822 27.9965 16.0007 28Z" fill="white"></path>
	<path d="M20.3901 11.724L14.6661 17.448L11.6088 14.3907C11.4858 14.2633 11.3387 14.1617 11.176 14.0919C11.0133 14.022 10.8384 13.9852 10.6613 13.9837C10.4843 13.9821 10.3087 14.0159 10.1449 14.0829C9.98099 14.1499 9.83212 14.2489 9.70693 14.3741C9.58174 14.4993 9.48274 14.6482 9.41569 14.8121C9.34865 14.9759 9.31492 15.1515 9.31646 15.3285C9.318 15.5056 9.35478 15.6805 9.42466 15.8432C9.49453 16.0059 9.59611 16.153 9.72346 16.276L13.7235 20.276C13.9735 20.5259 14.3126 20.6664 14.6661 20.6664C15.0197 20.6664 15.3587 20.5259 15.6088 20.276L22.2754 13.6093C22.5183 13.3579 22.6527 13.0211 22.6497 12.6715C22.6466 12.3219 22.5064 11.9875 22.2592 11.7402C22.012 11.493 21.6776 11.3528 21.328 11.3498C20.9784 11.3467 20.6416 11.4811 20.3901 11.724Z" fill="white"></path>
</svg>